<svg width="60" height="63" viewBox="0 0 60 63" fill="none" xmlns="http://www.w3.org/2000/svg">
<path d="M39.849 17.3215H45.1474L45.1471 22.6196L55.4563 32.9288L45.1471 43.2377V48.5074H35.6851L38.6213 45.5716H42.1827V42.0099L49.4795 34.7124L47.6959 32.9288L49.4798 31.1449L42.1827 23.8474V20.2859H38.6213L29.5402 11.2052L20.4591 20.2859H16.8973V23.8474L9.59984 31.1445L11.3841 32.9288L9.60016 34.7124L16.8973 42.0099V45.5716H20.4591L23.3952 48.5074H13.9329V43.2377L3.62372 32.9288L13.9329 22.6196V17.3215H19.2313L29.5402 7.01266L39.849 17.3215ZM6.02974 32.9288L7.5039 34.403L8.97807 32.9288L7.5039 31.4546L6.02974 32.9288ZM50.1019 32.9288L51.5761 34.403L53.0503 32.9288L51.5761 31.4546L50.1019 32.9288Z" fill="white"/>
<path d="M27.4671 48.5073L29.4434 50.4836L31.4197 48.5073H45.7477L43.2773 50.6483L36.3604 51.8011L34.5488 54.2714L35.8663 54.7655C33.1886 57.3717 31.5394 59.5807 29.4434 63C27.4768 59.6788 25.844 57.4634 23.0205 54.7655L24.338 54.2714L22.3617 51.8011L15.7741 50.6483L13.1391 48.5073H27.4671ZM29.5978 53.265C29.5447 53.1217 29.3421 53.1217 29.289 53.265L29.0188 53.9951C28.7519 54.7164 28.1832 55.2851 27.462 55.552L26.7318 55.8222C26.5884 55.8752 26.5884 56.0782 26.7318 56.1313L27.462 56.4015C28.1832 56.6684 28.7519 57.237 29.0188 57.9583L29.289 58.6885C29.342 58.8318 29.5447 58.8318 29.5978 58.6885L29.868 57.9583C30.1348 57.2371 30.7036 56.6684 31.4248 56.4015L32.155 56.1313C32.2984 56.0782 32.2984 55.8752 32.155 55.8222L31.4248 55.552C30.7036 55.2851 30.1348 54.7163 29.868 53.9951L29.5978 53.265Z" fill="white"/>
<path d="M43.8201 52.2861C42.0592 53.364 40.1623 54.2305 38.1775 54.8722L38.8752 54.1939L37.162 53.5509L37.2923 53.3733L43.5479 52.3311L43.8201 52.2861ZM55.8482 45.6898C55.7984 46.9036 54.8784 49.6791 51.5981 51.0712C48.7418 52.2833 46.6136 51.6919 45.6159 51.0786C45.2317 51.3619 44.8374 51.6357 44.4335 51.8991C44.4113 51.9136 44.3888 51.9275 44.3666 51.9419L50.1625 46.9189H50.0503C51.8734 46.2357 54.577 45.822 55.8482 45.6898ZM56.8273 24.0235C57.5735 24.2842 59.0818 25.7441 59.1465 29.4978C59.211 33.239 56.1378 35.8621 54.5777 36.7162C54.373 38.034 54.0385 39.3395 53.5741 40.6169C52.7484 42.8882 51.5326 45.0121 49.9856 46.9189H48.2429C48.8179 46.2593 49.3539 45.5676 49.8493 44.8506C49.3315 44.3851 48.7024 43.6467 48.1464 42.5668L51.9111 38.8024C52.0709 39.3663 52.1607 39.913 52.198 40.4265C52.2326 40.3358 52.2664 40.2449 52.2997 40.1537C52.5955 39.3511 52.8343 38.5292 53.0179 37.6956L57.7856 32.9286L54.5998 29.7432C54.7432 29.0699 54.9632 28.6192 55.2901 28.5537C56.4767 28.3163 56.8094 25.4346 56.8273 24.0235ZM47.4741 43.2391C47.5486 44.5252 47.4214 45.8131 47.2171 46.9189H46.7941V43.9194L47.4741 43.2391ZM59.1655 35.7721C59.3067 36.676 59.1909 39.1449 57.5977 41.7891C56.0045 44.4331 53.1767 45.2074 51.9619 45.2639C52.2303 44.4023 53.1059 42.1028 54.4618 39.7977C55.8178 37.4926 58.1626 36.1535 59.1655 35.7721ZM46.7941 16.6742C48.9344 18.5432 50.7246 20.8149 52.0623 23.2406C53.7841 25.0843 54.3672 27.6359 54.4329 29.576L46.7941 21.9375V20.84C47.0635 20.884 47.3425 20.9298 47.6314 20.9761C48.2023 21.0675 48.7282 21.2038 49.212 21.3778C49.1152 21.2529 49.0173 21.1288 48.9177 21.006C48.3561 20.5447 47.6514 20.0893 46.7941 19.7113V16.6742ZM51.1301 14.3206C51.6561 14.3688 53.6372 16.1423 54.7211 18.9548C56.0876 22.5006 55.0991 25.0787 54.411 26.0248L51.1301 19.7805V14.3206ZM45.6455 7.38145C46.6353 8.04956 48.7709 9.9945 49.3944 12.4293C50.0179 14.864 50.0005 17.4523 49.9139 18.442C48.6891 17.5265 46.1799 15.2352 45.9424 13.3942C45.7048 11.5533 45.6455 8.61863 45.6455 7.38145ZM41.9486 0C42.5301 1.55056 43.818 5.42091 44.319 8.49793C44.8037 11.4757 44.5122 13.0858 45.9742 15.6745H44.5641L44.475 15.0508C44.2331 14.7562 44.0395 14.485 43.9224 14.2569C43.2334 12.9152 40.6949 12.3529 40.3867 9.94153C40.0966 7.36696 40.265 5.21587 41.9486 0ZM38.798 13.9414C39.2014 14.0847 39.779 14.2496 40.6398 14.4409C41.8355 14.7067 43.0067 15.1808 43.9995 15.6745H40.5311L38.798 13.9414Z" fill="white"/>
<path d="M21.4646 53.3746L21.6335 53.5853L19.9872 54.2038L20.5015 54.695C18.7304 54.0816 17.0338 53.2871 15.447 52.3215L21.4646 53.3746ZM3.36158 45.6898C4.63281 45.822 7.33637 46.2357 9.15949 46.9189H8.50106L13.8422 51.259C13.759 51.1993 13.6761 51.1393 13.5939 51.0786C12.5962 51.6919 10.468 52.2833 7.61167 51.0712C4.33138 49.6791 3.41142 46.9036 3.36158 45.6898ZM2.38245 24.0235C2.4004 25.4346 2.73293 28.316 3.91934 28.5537C4.22884 28.6157 4.44223 29.0229 4.58581 29.6374L1.29491 32.9286L6.22885 37.8622C6.40726 38.6387 6.63401 39.4046 6.91013 40.1537C6.94323 40.2446 6.97701 40.3352 7.01145 40.4255C7.04655 39.943 7.12748 39.431 7.26974 38.9031L11.0187 42.6518C10.4737 43.6855 9.8643 44.3975 9.36021 44.8506C9.85555 45.5676 10.3919 46.2592 10.9669 46.9189H9.22415C7.67723 45.0121 6.46139 42.8882 5.63571 40.6169C5.17131 39.3395 4.83675 38.034 4.63213 36.7162C3.07204 35.8622 -0.0011893 33.2391 0.0632797 29.4978C0.128 25.744 1.63632 24.2842 2.38245 24.0235ZM12.2863 43.9194V46.9189H11.9927C11.7949 45.8485 11.6698 44.6075 11.7296 43.3626L12.2863 43.9194ZM0.0443018 35.7721C1.04722 36.1535 3.39199 37.4926 4.74793 39.7977C6.10387 42.1027 6.97949 44.4023 7.24787 45.264C6.03307 45.2074 3.20531 44.4332 1.61207 41.7891C0.0188532 39.1449 -0.0969431 36.676 0.0443018 35.7721ZM12.2863 19.7695C11.4873 20.1356 10.8252 20.5681 10.2921 21.006C10.1925 21.1288 10.0946 21.2529 9.99774 21.3778C10.4816 21.2038 11.0073 21.0675 11.5781 20.9761C11.8211 20.9371 12.0571 20.8983 12.2863 20.8609V21.9375L4.78138 29.4418C4.86907 27.5195 5.46503 25.0422 7.14751 23.2406C8.45817 20.8639 10.2033 18.6351 12.2863 16.7881V19.7695ZM8.07968 19.7805L4.79875 26.0248C4.11066 25.0787 3.12214 22.5007 4.48867 18.9548C5.57258 16.1423 7.55364 14.3688 8.07968 14.3206V19.7805ZM13.564 7.38145C13.564 8.61863 13.5046 11.5533 13.2671 13.3942C13.0295 15.2352 10.5207 17.5265 9.29588 18.442C9.20927 17.4523 9.19184 14.864 9.81536 12.4293C10.4388 9.99461 12.5741 8.04965 13.564 7.38145ZM17.2611 0C18.9448 5.21588 19.1132 7.36697 18.8231 9.94154C18.5149 12.353 15.9764 12.9152 15.2874 14.2569C15.1703 14.485 14.9767 14.7562 14.7348 15.0508L14.6457 15.6745H13.2356C14.6976 13.0858 14.406 11.4757 14.8908 8.49793C15.3918 5.4209 16.6797 1.55055 17.2611 0ZM18.5497 15.6745H15.2102C16.2031 15.1807 17.3743 14.7067 18.57 14.4409C19.3 14.2786 19.8263 14.1353 20.2156 14.0083L18.5497 15.6745Z" fill="white"/>
<path d="M29.1128 26.2677C29.2596 25.8711 29.8206 25.8711 29.9673 26.2677L31.5446 30.5302C31.5907 30.6549 31.6891 30.7532 31.8138 30.7993L36.0762 32.3766C36.4729 32.5233 36.4729 33.0843 36.0762 33.2311L31.8138 34.8084C31.6891 34.8545 31.5907 34.9528 31.5446 35.0775L29.9673 39.34C29.8206 39.7366 29.2596 39.7366 29.1128 39.34L27.5356 35.0775C27.4894 34.9528 27.3911 34.8545 27.2664 34.8084L23.0039 33.2311C22.6073 33.0843 22.6073 32.5233 23.0039 32.3766L27.2664 30.7993C27.3911 30.7532 27.4894 30.6549 27.5356 30.5302L29.1128 26.2677Z" fill="white"/>
<path d="M43.6244 36.5297C43.6244 37.2048 43.0772 37.7521 42.4021 37.7521C41.727 37.7521 41.1797 37.2048 41.1797 36.5297C41.1797 35.8546 41.727 35.3073 42.4021 35.3073C43.0772 35.3073 43.6244 35.8546 43.6244 36.5297Z" fill="white"/>
<path d="M19.3301 39.3467C19.3301 40.1752 18.6584 40.8468 17.8299 40.8468C17.0015 40.8468 16.3298 40.1752 16.3298 39.3467C16.3298 38.5182 17.0015 37.8466 17.8299 37.8466C18.6584 37.8466 19.3301 38.5182 19.3301 39.3467Z" fill="white"/>
<path d="M31.5108 46.6489C31.5108 47.5986 30.741 48.3685 29.7913 48.3685C28.8416 48.3685 28.0718 47.5986 28.0718 46.6489C28.0718 45.6993 28.8416 44.9294 29.7913 44.9294C30.741 44.9294 31.5108 45.6993 31.5108 46.6489Z" fill="white"/>
<path d="M28.9435 19.6664C28.9435 20.2672 28.4564 20.7544 27.8555 20.7544C27.2547 20.7544 26.7675 20.2672 26.7675 19.6664C26.7675 19.0655 27.2547 18.5783 27.8555 18.5783C28.4564 18.5783 28.9435 19.0655 28.9435 19.6664Z" fill="white"/>
<path d="M43.719 30.654C43.719 31.1398 43.3252 31.5336 42.8394 31.5336C42.3537 31.5336 41.9599 31.1398 41.9599 30.654C41.9599 30.1683 42.3537 29.7745 42.8394 29.7745C43.3252 29.7745 43.719 30.1683 43.719 30.654Z" fill="white"/>
<path d="M25.7482 20.5956C25.7482 21.0089 25.4131 21.3439 24.9998 21.3439C24.5865 21.3439 24.2514 21.0089 24.2514 20.5956C24.2514 20.1822 24.5865 19.8472 24.9998 19.8472C25.4131 19.8472 25.7482 20.1822 25.7482 20.5956Z" fill="white"/>
<path d="M17.0857 31.2405C17.0857 31.7168 16.6996 32.1028 16.2233 32.1028C15.7471 32.1028 15.361 31.7168 15.361 31.2405C15.361 30.7642 15.7471 30.3782 16.2233 30.3782C16.6996 30.3782 17.0857 30.7642 17.0857 31.2405Z" fill="white"/>
<path d="M23.0255 21.7698C23.0255 22.0431 22.804 22.2646 22.5308 22.2646C22.2575 22.2646 22.036 22.0431 22.036 21.7698C22.036 21.4966 22.2575 21.2751 22.5308 21.2751C22.804 21.2751 23.0255 21.4966 23.0255 21.7698Z" fill="white"/>
<path d="M42.4546 28.0493C42.4546 28.3225 42.2331 28.544 41.9599 28.544C41.6867 28.544 41.4652 28.3225 41.4652 28.0493C41.4652 27.7761 41.6867 27.5546 41.9599 27.5546C42.2331 27.5546 42.4546 27.7761 42.4546 28.0493Z" fill="white"/>
<path d="M41.068 25.5316C41.068 25.8048 40.8465 26.0263 40.5733 26.0263C40.3001 26.0263 40.0786 25.8048 40.0786 25.5316C40.0786 25.2584 40.3001 25.0369 40.5733 25.0369C40.8465 25.0369 41.068 25.2584 41.068 25.5316Z" fill="white"/>
<path d="M40.5733 23.0732C40.5733 23.3464 40.3518 23.5679 40.0786 23.5679C39.8053 23.5679 39.5838 23.3464 39.5838 23.0732C39.5838 22.7999 39.8053 22.5784 40.0786 22.5784C40.3518 22.5784 40.5733 22.7999 40.5733 23.0732Z" fill="white"/>
<path d="M36.8031 21.5629C36.8031 21.8361 36.5816 22.0576 36.3084 22.0576C36.0352 22.0576 35.8137 21.8361 35.8137 21.5629C35.8137 21.2896 36.0352 21.0681 36.3084 21.0681C36.5816 21.0681 36.8031 21.2896 36.8031 21.5629Z" fill="white"/>
<path d="M34.167 20.3419C34.167 20.6152 33.9455 20.8367 33.6722 20.8367C33.399 20.8367 33.1775 20.6152 33.1775 20.3419C33.1775 20.0687 33.399 19.8472 33.6722 19.8472C33.9455 19.8472 34.167 20.0687 34.167 20.3419Z" fill="white"/>
<path d="M31.5109 19.8472C31.5109 20.1204 31.2894 20.3419 31.0161 20.3419C30.7429 20.3419 30.5214 20.1204 30.5214 19.8472C30.5214 19.5739 30.7429 19.3524 31.0161 19.3524C31.2894 19.3524 31.5109 19.5739 31.5109 19.8472Z" fill="white"/>
<path d="M20.7309 23.5679C20.7309 23.8411 20.5094 24.0626 20.2362 24.0626C19.9629 24.0626 19.7414 23.8411 19.7414 23.5679C19.7414 23.2947 19.9629 23.0732 20.2362 23.0732C20.5094 23.0732 20.7309 23.2947 20.7309 23.5679Z" fill="white"/>
<path d="M18.9156 25.7429C18.9156 26.0161 18.6941 26.2376 18.4209 26.2376C18.1476 26.2376 17.9261 26.0161 17.9261 25.7429C17.9261 25.4697 18.1476 25.2482 18.4209 25.2482C18.6941 25.2482 18.9156 25.4697 18.9156 25.7429Z" fill="white"/>
<path d="M16.7184 33.9722C16.7184 34.2455 16.4969 34.467 16.2236 34.467C15.9504 34.467 15.7289 34.2455 15.7289 33.9722C15.7289 33.699 15.9504 33.4775 16.2236 33.4775C16.4969 33.4775 16.7184 33.699 16.7184 33.9722Z" fill="white"/>
<path d="M17.0858 36.8619C17.0858 37.1351 16.8643 37.3566 16.591 37.3566C16.3178 37.3566 16.0963 37.1351 16.0963 36.8619C16.0963 36.5887 16.3178 36.3672 16.591 36.3672C16.8643 36.3672 17.0858 36.5887 17.0858 36.8619Z" fill="white"/>
<path d="M19.8247 41.9504C19.8247 42.2236 19.6032 42.4451 19.33 42.4451C19.0568 42.4451 18.8353 42.2236 18.8353 41.9504C18.8353 41.6771 19.0568 41.4556 19.33 41.4556C19.6032 41.4556 19.8247 41.6771 19.8247 41.9504Z" fill="white"/>
<path d="M21.9437 43.8515C21.9437 44.1247 21.7222 44.3462 21.4489 44.3462C21.1757 44.3462 20.9542 44.1247 20.9542 43.8515C20.9542 43.5782 21.1757 43.3567 21.4489 43.3567C21.7222 43.3567 21.9437 43.5782 21.9437 43.8515Z" fill="white"/>
<path d="M24.4412 45.4242C24.4412 45.6974 24.2197 45.9189 23.9464 45.9189C23.6732 45.9189 23.4517 45.6974 23.4517 45.4242C23.4517 45.1509 23.6732 44.9294 23.9464 44.9294C24.2197 44.9294 24.4412 45.1509 24.4412 45.4242Z" fill="white"/>
<path d="M27.1699 46.3031C27.1699 46.5763 26.9484 46.7978 26.6752 46.7978C26.4019 46.7978 26.1804 46.5763 26.1804 46.3031C26.1804 46.0299 26.4019 45.8084 26.6752 45.8084C26.9484 45.8084 27.1699 46.0299 27.1699 46.3031Z" fill="white"/>
<path d="M33.4022 46.3031C33.4022 46.5763 33.1807 46.7978 32.9074 46.7978C32.6342 46.7978 32.4127 46.5763 32.4127 46.3031C32.4127 46.0299 32.6342 45.8084 32.9074 45.8084C33.1807 45.8084 33.4022 46.0299 33.4022 46.3031Z" fill="white"/>
<path d="M35.9886 45.3136C35.9886 45.5869 35.7671 45.8084 35.4939 45.8084C35.2207 45.8084 34.9992 45.5869 34.9992 45.3136C34.9992 45.0404 35.2207 44.8189 35.4939 44.8189C35.7671 44.8189 35.9886 45.0404 35.9886 45.3136Z" fill="white"/>
<path d="M38.4189 43.686C38.4189 43.9593 38.1974 44.1808 37.9242 44.1808C37.651 44.1808 37.4295 43.9593 37.4295 43.686C37.4295 43.4128 37.651 43.1913 37.9242 43.1913C38.1974 43.1913 38.4189 43.4128 38.4189 43.686Z" fill="white"/>
<path d="M40.4033 41.7239C40.4033 41.9971 40.1818 42.2186 39.9086 42.2186C39.6354 42.2186 39.4139 41.9971 39.4139 41.7239C39.4139 41.4506 39.6354 41.2291 39.9086 41.2291C40.1818 41.2291 40.4033 41.4506 40.4033 41.7239Z" fill="white"/>
<path d="M42.0575 39.3163C42.0575 39.5895 41.836 39.811 41.5628 39.811C41.2895 39.811 41.068 39.5895 41.068 39.3163C41.068 39.043 41.2895 38.8215 41.5628 38.8215C41.836 38.8215 42.0575 39.043 42.0575 39.3163Z" fill="white"/>
</svg>
