<svg width="63" height="63" viewBox="0 0 63 63" fill="none" xmlns="http://www.w3.org/2000/svg">
<path d="M63 31.5L31.5 63L0 31.5L31.5 0L63 31.5ZM1.26266 31.5L31.5 61.7373L61.7373 31.5L31.5 1.26266L1.26266 31.5Z" fill="white"/>
<path d="M31.534 43.9993C31.7319 44.8845 32.3529 46.5881 33.6602 47.759C35.6986 49.5847 36.1552 50.8621 36.1857 52.292L34.1776 53.8135C34.0563 53.0398 33.6309 51.3726 33.1431 50.5277C32.6858 49.7357 31.9624 49.0586 31.5732 48.8075L31.5 48.763C31.1353 48.9688 30.3447 49.6829 29.8569 50.5277C29.3691 51.3726 28.9437 53.0398 28.8224 53.8135L26.8143 52.292C26.8448 50.8621 27.3014 49.5847 29.3398 47.759C30.7342 46.5101 31.3479 44.6552 31.5 43.8336L31.534 43.9993Z" fill="white"/>
<path d="M42.167 16.4312C43.9927 15.2135 46.3384 15.9553 49.9204 15.7964C50.1859 17.6033 49.3913 21.4536 47.4508 23.5599C45.5102 25.6662 43.1673 25.7373 41.4869 25.5244V23.7256C43.9483 23.56 45.12 22.757 45.8177 22.1636C47.8767 20.4122 47.6242 18.637 47.8767 17.6667C46.64 17.6036 43.9671 17.6339 43.1671 18.2587C42.167 19.0398 40.9896 21.0988 40.6346 23.9388C40.3506 26.2108 39.4749 27.4099 39.0726 27.7255C40.1456 28.1515 42.8504 29.4486 45.0844 31.2284C47.8768 33.453 48.4923 33.2399 49.3916 32.9086C50.1111 32.6435 51.2693 31.4729 51.7584 30.9206C51.3166 30.2816 50.0733 28.9232 48.6344 28.6013L49.3916 26.5183C50.1805 26.8576 51.6644 27.8188 52.4364 28.5076C53.2032 29.1918 53.9771 30.2629 54.5987 30.6128C53.8178 32.1039 51.4337 34.8022 48.8476 34.9205C45.2264 35.0862 43.7116 32.6249 40.9188 32.1042C39.057 31.8597 35.3288 32.4876 35.3098 36.956C35.2862 42.5412 37.7949 44.4583 39.2147 45.1921C40.3505 45.779 42.5124 46.1623 43.4513 46.2807L39.7592 50.0438C37.5829 49.4093 32.9248 47.0504 32.3837 42.9338C31.9857 39.906 31.9885 36.5657 32.5302 34.5443C32.892 33.1937 34.8912 32.3324 35.8482 32.2154C34.9143 32.072 33.4898 31.5902 32.8702 30.9389C32.1293 30.1601 31.573 28.5799 31.5065 28.1519L31.5 28.0821C31.5 28.3658 30.92 30.1082 30.1298 30.9389C29.5103 31.5902 28.0857 32.072 27.1518 32.2154C28.1088 32.3325 30.108 33.1937 30.4698 34.5443C31.0115 36.5657 31.0143 39.906 30.6163 42.9338C30.0752 47.0504 25.4171 49.4093 23.2408 50.0438L19.5487 46.2807C20.4876 46.1623 22.6491 45.779 23.7849 45.1921C25.2047 44.4584 27.7138 42.5414 27.6902 36.956C27.6712 32.4877 23.943 31.8597 22.0812 32.1042C19.2884 32.6249 17.7736 35.0862 14.1524 34.9205C11.5663 34.8022 9.18223 32.1039 8.40131 30.6128C9.02294 30.2629 9.79681 29.1918 10.5636 28.5076C11.3356 27.8188 12.819 26.8576 13.6079 26.5183L14.3656 28.6013C12.9267 28.9232 11.6834 30.2815 11.2416 30.9206C11.7307 31.4728 12.8885 32.6433 13.6079 32.9086C14.5073 33.2399 15.1231 33.4531 17.9156 31.2284C20.1496 29.4486 22.8544 28.1515 23.9274 27.7255C23.5251 27.4099 22.6494 26.2108 22.3654 23.9388C22.0104 21.0988 20.833 19.0398 19.8329 18.2587C19.0329 17.6339 16.3595 17.6036 15.1229 17.6667C15.3753 18.637 15.1233 20.4122 17.1823 22.1636C17.88 22.757 19.0517 23.56 21.5131 23.7256V25.5244C19.8327 25.7373 17.4898 25.6662 15.5492 23.5599C13.6087 21.4536 12.8141 17.6033 13.0795 15.7964C16.6616 15.9553 19.0074 15.2135 20.833 16.4312C24.0292 18.5629 23.5537 21.4645 25.9341 24.4571C27.8385 26.8511 30.4382 27.3083 31.5 27.2377L31.6042 27.2429C32.7239 27.278 35.2211 26.7762 37.0658 24.4571C39.4463 21.4645 38.9708 18.5629 42.167 16.4312Z" fill="white"/>
<path d="M16.2062 31.2184C15.6501 31.618 14.2042 32.1774 12.8694 31.2184L15.2022 29.5334L16.2062 31.2184Z" fill="white"/>
<path d="M50.131 31.2184C48.7962 32.1775 47.3499 31.618 46.7938 31.2184L47.7978 29.5334L50.131 31.2184Z" fill="white"/>
<path d="M15.2127 24.8233C16.0286 26.0898 17.4 26.3052 17.9836 26.2546L19.8103 28.4313L17.6484 30.0906C15.2493 28.6046 15.0249 25.9599 15.2127 24.8233Z" fill="white"/>
<path d="M47.7873 24.8233C47.9751 25.9599 47.7507 28.6046 45.3516 30.0906L43.1897 28.4313L45.0164 26.2546C45.6 26.3052 46.9714 26.0898 47.7873 24.8233Z" fill="white"/>
<path d="M33.0616 19.9842C33.344 20.4266 34.106 21.4243 34.8965 21.8763C35.6872 22.3282 36.3558 22.4031 36.5911 22.3842C36.433 23.1296 35.6027 24.0314 35.2074 24.3891C33.7503 23.9486 32.5766 22.5304 32.1718 21.8763L33.0616 19.9842Z" fill="white"/>
<path d="M31.565 13.0133C32.3658 13.0133 32.5992 13.797 32.7102 14.2893C32.8811 15.047 32.71 15.9324 32.3658 16.3126C32.3086 17.1328 32.3659 19.5162 31.7367 20.6604C31.0234 21.9573 29.1301 23.7117 27.9605 24.322C27.2893 24.0168 26.6892 22.93 26.5685 22.4914C27.4457 22.3007 29.1813 21.271 29.9441 20.1268C30.5543 19.2114 30.745 17.2027 30.7641 16.3126C30.337 15.9615 30.3653 14.9224 30.4415 14.3504C30.5432 13.969 30.8847 13.0133 31.565 13.0133Z" fill="white"/>
<path d="M21.0872 21.4381L19.3922 22.3672L17.9583 21.0471L19.7183 19.7427L21.0872 21.4381Z" fill="white"/>
<path d="M45.0417 21.0471L43.6078 22.3672L41.9128 21.4381L43.2817 19.7427L45.0417 21.0471Z" fill="white"/>
<path d="M31.6072 3.94322C32.1657 5.48942 33.0328 8.34801 33.3602 9.23398C33.8874 10.6604 34.7247 10.9706 36.2131 14.7536C37.4038 17.78 36.2961 20.2733 35.5932 21.1417L34.1358 19.6533C34.5699 18.692 35.0427 16.1631 34.2378 14.5875C33.4832 13.1104 32.2003 11.0514 31.6086 9.76062L31.5 9.513C30.9729 10.7741 29.5671 13.012 28.7622 14.5875C27.9573 16.1631 28.4301 18.692 28.8642 19.6533L27.4068 21.1417C26.7039 20.2733 25.5962 17.78 26.7869 14.7536C28.2753 10.9706 29.1126 10.6604 29.6398 9.23398C29.989 8.28895 30.9523 5.09949 31.5 3.65244L31.6072 3.94322Z" fill="white"/>
<path d="M25.5693 19.0068L24.5892 19.3796L23.6484 17.7918L24.2753 17.4587L24.5892 16.3026L25.3927 15.9887L25.5693 19.0068Z" fill="white"/>
<path d="M38.4108 16.3026L38.7247 17.4587L39.3516 17.7918L38.4108 19.3796L37.4307 19.0068L37.6073 15.9887L38.4108 16.3026Z" fill="white"/>
<path d="M59.3478 31.5004L31.5002 59.348L3.65222 31.5004L14.6571 20.4952L14.746 20.7458L16.3843 21.9247L6.80898 31.5004L31.5002 56.1917L56.191 31.5004L47.2849 22.5943L47.5412 22.4343L48.1947 20.3474L59.3478 31.5004Z" fill="white"/>
<path d="M29.221 6.22109C28.8599 7.34281 28.5452 8.33238 28.3836 8.76969C28.1845 9.30844 27.9727 9.55572 27.4423 10.3936C27.2407 10.7121 27.0216 11.0782 26.7814 11.5275L22.3852 15.9237C22.1396 15.716 21.8711 15.5134 21.5765 15.3169C21.1978 15.0643 20.8075 14.8784 20.4112 14.741L29.3592 5.79298C29.3128 5.93673 29.2665 6.07981 29.221 6.22109Z" fill="white"/>
<path d="M42.5888 14.741C42.1927 14.8784 41.8025 15.0644 41.4239 15.3169C41.1292 15.5134 40.8605 15.716 40.6147 15.9237L36.2186 11.5275C35.9784 11.0783 35.7597 10.7121 35.5581 10.3936C35.0277 9.55575 34.816 9.30844 34.6169 8.76969C34.4662 8.36185 34.1802 7.46694 33.8457 6.42643C33.7787 6.2182 33.7087 6.00566 33.6395 5.79168L42.5888 14.741Z" fill="white"/>
<path fill-rule="evenodd" clip-rule="evenodd" d="M20.3326 35.7572C21.297 35.0656 22.9921 34.1422 24.5435 34.6804C26.0949 35.2186 26.6965 36.8652 26.2533 39.7152C25.8911 42.0441 22.7598 43.2508 21.0606 43.5464L15.1399 37.5939C16.3748 37.3725 19.1123 36.6323 20.3326 35.7572ZM23.4353 36.8632C22.6754 36.8316 22.2416 37.7798 21.8523 38.1615C21.463 38.5431 19.7839 39.3432 18.9078 39.7126L20.5858 41.7389C21.6202 41.5805 23.7707 40.8968 24.1001 39.4279C24.5117 37.5915 24.1951 36.8949 23.4353 36.8632Z" fill="white"/>
<path fill-rule="evenodd" clip-rule="evenodd" d="M42.6674 35.7572C41.703 35.0656 40.0079 34.1422 38.4566 34.6804C36.9051 35.2186 36.3035 36.8652 36.7467 39.7152C37.1089 42.0441 40.2402 43.2508 41.9394 43.5464L47.8601 37.5939C46.6252 37.3725 43.8877 36.6323 42.6674 35.7572ZM39.5648 36.8632C40.3246 36.8316 40.7584 37.7798 41.1477 38.1615C41.537 38.5431 43.2161 39.3432 44.0922 39.7126L42.4142 41.7389C41.3798 41.5805 39.2293 40.8968 38.8999 39.4279C38.4883 37.5915 38.8049 36.8949 39.5648 36.8632Z" fill="white"/>
</svg>
