<svg width="63" height="63" viewBox="0 0 63 63" fill="none" xmlns="http://www.w3.org/2000/svg">
<path d="M1.66016 33.874C2.82144 48.6723 14.7438 60.4432 29.6064 61.3711L30.7627 62.999C14.1032 62.6164 0.64148 49.3046 0.0166016 32.7061L1.66016 33.874ZM31.5195 1.22949C31.6639 1.02641 31.966 1.02634 32.1104 1.22949L34.6943 4.86621C47.0826 6.28484 56.9112 16.1148 58.3301 28.5029L61.9688 31.0879C62.1716 31.2322 62.1715 31.5333 61.9688 31.6777L58.3809 34.2275C57.9619 38.5482 56.5195 42.5685 54.3018 46.0459C54.684 48.6361 54.3043 50.9012 52.79 52.5371C57.7185 47.5494 60.9079 40.8394 61.3721 33.3896L62.999 32.2344C62.6178 48.8956 49.3052 62.3582 32.7051 62.9824L33.873 61.3389C41.0818 60.7735 47.5717 57.6541 52.4404 52.8857C51.7773 53.4937 50.9347 54.001 49.8877 54.3867C48.7435 54.8083 47.2699 54.8281 45.623 54.5645C42.371 56.5541 38.6646 57.8744 34.6943 58.3291L32.1104 61.9678C31.966 62.1706 31.6639 62.1706 31.5195 61.9678L28.9707 58.3799C16.3639 57.1575 6.30511 47.2371 4.86816 34.6943L1.23047 32.1084C1.02756 31.964 1.02755 31.6629 1.23047 31.5186L4.81738 28.9678C5.31331 23.8561 7.24032 19.164 10.1914 15.2949C10.5008 14.1849 11.0425 13.1437 11.8594 12.1943C12.7073 11.3464 13.7345 10.805 14.8848 10.5098C18.8309 7.37804 23.6761 5.32978 28.9707 4.81641L31.5195 1.22949ZM28.8105 46.3018C23.9989 48.8423 19.2831 50.4724 15.7754 49.9307C19.5082 53.1548 24.2362 55.2584 29.4365 55.7188L31.5117 58.6396C31.656 58.8425 31.9581 58.8423 32.1025 58.6396L34.207 55.6758C36.8907 55.3885 39.4428 54.6621 41.791 53.5713C36.828 51.8759 31.4318 48.6759 28.8105 46.3018ZM22.8828 49.7686C25.5198 51.0352 28.4757 51.7451 31.5967 51.7451C32.8643 51.7451 34.1049 51.6263 35.3076 51.4023C36.3103 51.9401 37.3554 52.4556 38.4131 52.9268C37.0511 53.3616 35.6323 53.6696 34.1709 53.8369L32.0713 56.792C31.927 56.995 31.6249 56.9949 31.4805 56.792L29.4092 53.8779C25.8606 53.5338 22.5553 52.3598 19.6875 50.5547C20.7132 50.3912 21.7839 50.1227 22.8828 49.7686ZM45.542 34.6484C41.8498 37.8383 36.369 42.0033 30.8115 45.1963C35.62 48.4458 42.8039 51.5802 47.1484 50.1621C48.2497 49.2388 49.2679 48.22 50.1895 47.1172C51.593 43.4296 50.0565 38.6482 47.9717 34.6152C47.6106 34.7532 47.2182 34.8301 46.8086 34.8301C46.3787 34.83 45.9685 34.745 45.5928 34.5938C45.5755 34.6117 45.5592 34.6307 45.542 34.6484ZM42.1602 50.209C42.1286 50.2028 42.0961 50.1978 42.0645 50.1914L42.0391 50.1855C42.0792 50.1937 42.1202 50.2011 42.1602 50.209ZM49.5449 40.7617C49.8556 42.0217 50.0124 43.2466 49.9658 44.3955C48.5203 46.466 46.7338 48.2804 44.6875 49.7578C43.6381 49.7511 42.486 49.5756 41.2812 49.2676C44.8154 47.3267 47.7048 44.3575 49.5449 40.7617ZM33.6992 18.8037C28.1116 14.5871 21.8733 11.5752 17.292 13.8242C12.3691 16.2412 14.0144 23.3916 17.3145 30.3115C19.8171 27.9189 22.5419 25.8865 24.7168 24.5078C22.7073 26.2892 20.1976 29.0547 18.0713 31.8389C19.9868 35.5737 22.2851 39.1316 24.1738 41.7109C21.9829 39.3557 19.378 36.437 16.9951 33.2959C15.2827 35.7025 13.9794 37.9957 13.6709 39.5381C12.9466 43.1598 13.3087 52.033 31.7793 41.168C36.8224 38.2014 40.7438 35.2468 43.6787 32.4805C43.5949 32.1916 43.5498 31.8862 43.5498 31.5703C43.5499 30.6227 43.954 29.7694 44.5996 29.1738C44.4244 28.9332 44.2556 28.7043 44.0928 28.4912C41.7212 25.8263 38.1806 22.2729 34.2783 19.2471C33.0393 19.6301 31.932 20.0122 31.0547 20.3428C31.7973 19.864 32.6951 19.3359 33.6992 18.8037ZM14.6357 42.4766C15.3309 43.5579 16.1266 44.5686 17.0098 45.4951C16.7135 45.4108 16.457 45.3022 16.2363 45.1768C15.3392 44.6665 14.8752 43.7947 14.6816 42.7676C14.6635 42.6713 14.649 42.574 14.6357 42.4766ZM10.1562 20.333C8.69895 23.1013 7.76208 26.1863 7.47559 29.458L4.58887 31.5107C4.38634 31.6552 4.38611 31.9563 4.58887 32.1006L7.51758 34.1826C7.84668 37.285 8.76243 40.2119 10.1504 42.8516C10.1387 39.0836 12.6656 35.1527 15.8662 31.7666C13.1702 28.0031 10.9252 24.0071 10.1562 20.333ZM53.2041 20.6465C53.2664 23.4676 51.5708 26.8499 49.5352 29.7842C49.872 30.2972 50.0683 30.9108 50.0684 31.5703C50.0683 32.4777 49.6969 33.2978 49.0986 33.8887C50.8371 36.676 52.3567 39.5737 53.3271 42.3008C54.613 39.6949 55.4454 36.8248 55.7178 33.793L58.6416 31.7168C58.8442 31.5724 58.8443 31.2713 58.6416 31.127L55.6816 29.0234C55.3658 26.0353 54.5059 23.2097 53.2041 20.6465ZM31.2578 23.0713C31.3746 22.7564 31.8206 22.7565 31.9375 23.0713L33.9854 28.6064C34.022 28.7054 34.1003 28.7836 34.1992 28.8203L39.7344 30.8682C40.0496 30.9849 40.0496 31.4311 39.7344 31.5479L34.1992 33.5957C34.1003 33.6324 34.022 33.7106 33.9854 33.8096L31.9375 39.3447C31.8207 39.6598 31.3745 39.6599 31.2578 39.3447L29.21 33.8096C29.1732 33.7106 29.0951 33.6323 28.9961 33.5957L23.4619 31.5479C23.1467 31.4312 23.1467 30.9849 23.4619 30.8682L28.9961 28.8203C29.0952 28.7836 29.1733 28.7055 29.21 28.6064L31.2578 23.0713ZM10.6846 23.583C11.0668 24.6004 11.5323 25.6246 12.0605 26.6436C11.6603 28.2278 11.4473 29.8871 11.4473 31.5957C11.4473 33.1837 11.6312 34.7289 11.9785 36.2109C11.3925 37.1811 10.8968 38.18 10.5303 39.1924C9.9541 37.5949 9.55404 35.9126 9.35449 34.1699L6.40039 32.0693C6.19723 31.925 6.19726 31.6239 6.40039 31.4795L9.31445 29.4082C9.51162 27.3746 9.98014 25.4205 10.6846 23.583ZM53.0244 25.0898C53.4084 26.3562 53.6833 27.6702 53.8379 29.0205L56.7939 31.1211C56.9965 31.2655 56.9965 31.5665 56.7939 31.7109L53.8789 33.7822C53.6999 35.6284 53.2971 37.4093 52.6973 39.0967C52.2582 38.1631 51.774 37.2267 51.2588 36.2988C51.2437 36.2716 51.2281 36.244 51.2129 36.2168C51.5611 34.7329 51.746 33.1858 51.7461 31.5957C51.7461 30.4612 51.6509 29.3481 51.4707 28.2646C51.864 27.591 52.2273 26.9066 52.5449 26.2207C52.7183 25.8462 52.8784 25.4683 53.0244 25.0898ZM29.6064 1.62695C14.5831 2.56487 2.56566 14.583 1.62793 29.6064L0 30.7627C0.385981 13.9464 13.9465 0.38621 30.7627 0L29.6064 1.62695ZM32.7061 0.015625C49.1486 0.634401 62.3642 13.8505 62.9834 30.293L61.3398 29.125C60.1909 14.4863 48.512 2.80726 33.873 1.65918L32.7061 0.015625ZM48.6201 17.627C45.8817 16.5511 40.7333 17.4509 36.3955 18.6318C36.8562 18.9943 37.2531 19.3272 37.5742 19.6191C39.0747 20.8311 42.2658 24.287 45.4736 28.5967C45.8811 28.4135 46.3329 28.3106 46.8086 28.3105C47.0277 28.3105 47.2422 28.3328 47.4492 28.374C51.6385 22.9477 51.592 18.7947 48.6201 17.627ZM46.7041 18.2646C47.3368 18.3305 47.8898 18.4508 48.3457 18.6299C49.3185 19.0124 49.887 19.7857 49.9697 20.9648C50.0076 21.5058 49.9418 22.1357 49.7529 22.8457C48.9476 21.1776 47.917 19.6382 46.7041 18.2646ZM21.4736 14.1699C19.0384 15.5878 16.9277 17.5022 15.2793 19.7734C15.2806 19.5524 15.2897 19.3359 15.3057 19.125C15.4564 17.1403 16.2582 15.6725 17.9443 14.8447C19.0092 14.322 20.1942 14.1118 21.4736 14.1699ZM32.1025 4.58789C31.9582 4.38474 31.6561 4.38481 31.5117 4.58789L29.46 7.47461C25.9639 7.78066 22.6807 8.82922 19.7695 10.4619C25.3259 11.4267 31.7595 15.1998 35.4609 17.9219C40.0601 15.7571 46.0501 13.9791 50.0508 15.9121C46.1335 11.3084 40.524 8.18914 34.1836 7.5166L32.1025 4.58789ZM31.4805 6.39844C31.6249 6.19531 31.9269 6.19528 32.0713 6.39844L34.1709 9.35352C38.7901 9.88234 42.9815 11.8179 46.3076 14.7197C45.2351 14.6964 44.1281 14.8026 43.0244 14.999C39.7771 12.7589 35.8401 11.4463 31.5967 11.4463C29.8084 11.4463 28.0746 11.6799 26.4238 12.1172C26.3014 12.0641 26.1784 12.0117 26.0557 11.96C25.0833 11.5506 24.0943 11.1805 23.1074 10.8721C25.0823 10.0622 27.1988 9.52684 29.4092 9.3125L31.4805 6.39844Z" fill="white"/>
</svg>
