<svg width="52" height="56" viewBox="0 0 52 56" fill="none" xmlns="http://www.w3.org/2000/svg">
<path d="M26.2338 40.0042L26.0508 40.161C25.8813 40.3063 25.6654 40.3862 25.4421 40.3862C25.2396 40.3862 25.0427 40.3205 24.8808 40.1991L24.6086 39.9951C24.2643 39.7368 24.0148 39.3723 23.8987 38.9578L23.1567 36.3081L22.1041 32.7562L21.7261 31.3704C21.453 30.3693 21.3146 29.3363 21.3146 28.2986C21.3146 28.0583 21.4796 27.8495 21.7134 27.7938L22.8716 27.5181C23.6735 27.3272 24.4532 27.0531 25.1981 26.7004L26.5775 26.047L29.1631 24.5993C29.6315 24.3371 30.0785 24.0382 30.4999 23.7056L31.0647 23.2598C31.9212 22.5837 32.6107 21.7196 33.0799 20.7345C33.4778 19.8991 33.7088 18.9942 33.7601 18.0704L33.7718 17.8599C33.7998 17.3563 33.7639 16.8512 33.665 16.3566C33.5029 15.5465 33.1746 14.7787 32.7007 14.1019L32.4179 13.6979C31.8634 12.9059 31.1514 12.237 30.3264 11.7329C29.5878 11.2816 28.7721 10.9707 27.9205 10.8159L27.0415 10.6561C25.6043 10.3948 24.1312 10.4023 22.6968 10.6781L22.195 10.7746C21.697 10.8703 21.2091 11.0134 20.7382 11.2017C19.9006 11.5367 19.1258 12.0113 18.4468 12.6053L18.187 12.8326C17.6448 13.307 17.1886 13.8716 16.8386 14.5014C16.3226 15.4301 16.0518 16.4751 16.0518 17.5375V18.5615C16.0518 19.3341 16.2087 20.0987 16.5131 20.8089C16.7307 21.3165 17.0208 21.7897 17.3743 22.2139L18.5909 23.6736C18.7356 23.8471 18.8148 24.0659 18.8148 24.2919C18.8148 24.8253 18.3823 25.2577 17.8488 25.2577H15.8864C15.5604 25.2577 15.2366 25.2033 14.9285 25.0966L11.973 24.0737L10.1367 23.1557C9.4358 22.8053 8.79596 22.3442 8.24183 21.7902L8.00154 21.5499C7.32613 20.8746 6.82448 20.0457 6.53957 19.1341C6.39076 18.658 6.30284 18.1649 6.27793 17.6667L6.25738 17.2558C6.20874 16.2831 6.32693 15.3092 6.60683 14.3763C6.8498 13.5666 7.21173 12.7973 7.68077 12.0939L8.81532 10.3923L9.2853 9.66611C9.93243 8.66614 10.7396 7.7794 11.6746 7.04138C12.3969 6.47121 13.1888 5.99513 14.0311 5.62455L14.6245 5.3635C15.5719 4.9467 16.5699 4.6559 17.593 4.49853L17.7622 4.47249L19.3411 4.20939C20.2954 3.94915 21.1849 3.49258 21.9527 2.86889L22.8935 2.10456L24.6541 0.24647C24.9781 -0.0954751 25.5276 -0.0794043 25.831 0.280891L26.6456 1.24807C27.1254 1.81779 27.658 2.34097 28.2361 2.81065L29.1957 3.59019C29.3794 3.73944 29.5789 3.86813 29.7906 3.97398C30.1025 4.1299 30.4375 4.23453 30.7827 4.28383L32.1035 4.47249L32.3199 4.50134C33.4849 4.65664 34.6203 4.9845 35.6887 5.47412L36.2065 5.7114C36.8905 6.02487 37.5431 6.40281 38.1554 6.84009L39.0532 7.48131C39.6815 7.93 40.2643 8.43903 40.7935 9.00116L40.99 9.20991C41.7285 9.99452 42.3565 10.8763 42.8566 11.8307L43.1614 12.4126C43.4203 12.9068 43.6428 13.4193 43.8272 13.9459L44.0133 14.4776C44.3165 15.3436 44.4713 16.2546 44.4713 17.1722V17.2574C44.4713 18.026 44.3547 18.7902 44.1254 19.5238C43.9184 20.1861 43.6217 20.8168 43.2435 21.3985L42.9107 21.9105C42.3743 22.7355 41.7372 23.4905 41.0141 24.1579L39.7711 25.3051C39.0479 25.9725 38.2444 26.5472 37.3791 27.0158L35.5244 28.0203L33.0432 29.1229C32.332 29.4389 31.6643 29.845 31.0566 30.3311C30.355 30.8923 29.7405 31.5544 29.2332 32.2958L29.0622 32.5457C28.548 33.2971 28.128 34.1088 27.8118 34.9625L27.1685 36.6991C27.0382 37.051 26.9513 37.4175 26.9098 37.7905L26.7782 38.9748C26.7338 39.3745 26.5392 39.7425 26.2338 40.0042Z" fill="#D3BC8F"/>
<path d="M27.6301 20.6534L25.8212 23.3132C25.6143 23.6173 25.1672 23.6209 24.9556 23.3201L22.8935 20.3903L20.002 18.57C19.6861 18.3711 19.6719 17.9157 19.9749 17.6976L22.6304 15.786L25.0958 12.5365C25.3094 12.2551 25.7342 12.2598 25.9414 12.5459L28.288 15.786L30.8455 17.7039C31.1374 17.9228 31.1234 18.365 30.8182 18.565L27.6301 20.6534Z" fill="#D3BC8F"/>
<path d="M4.34187 39.2022V20.3903H4.86816V39.2022C4.86816 39.9288 5.45723 40.5177 6.18388 40.5177H16.7135C17.202 40.5177 17.6707 40.7117 18.0161 41.0571L24.4631 47.5031C24.9769 48.0168 25.8098 48.0168 26.3236 47.5031L32.7707 41.0571C33.1161 40.7117 33.5848 40.5177 34.0733 40.5177H44.7345C45.4611 40.5177 46.0502 39.9288 46.0502 39.2022V20.3903H46.5765V39.2022C46.5765 40.2194 45.7518 41.044 44.7345 41.044H34.0733C33.7243 41.044 33.3898 41.1827 33.143 41.4294L26.696 47.8754C25.9767 48.5946 24.8101 48.5947 24.0908 47.8754L17.6437 41.4294C17.397 41.1827 17.0624 41.044 16.7135 41.044H6.18388C5.16657 41.044 4.34187 40.2194 4.34187 39.2022Z" fill="#D3BC8F"/>
<path d="M7.89432 36.045V20.3903H8.4206V36.045C8.4206 36.7715 9.00967 37.3605 9.73632 37.3605H18.2924C18.7809 37.3605 19.2495 37.5544 19.595 37.8998L24.4631 42.7672C24.9769 43.281 25.8098 43.281 26.3236 42.7672L31.1918 37.8998C31.5372 37.5544 32.0059 37.3605 32.4944 37.3605H41.0504C41.7771 37.3605 42.3662 36.7715 42.3662 36.045V20.3903H42.8925V36.045C42.8925 37.0621 42.0678 37.8867 41.0504 37.8867H32.4944C32.1455 37.8867 31.8109 38.0254 31.5642 38.2721L26.696 43.1395C25.9767 43.8588 24.8101 43.8588 24.0908 43.1395L19.2226 38.2721C18.9759 38.0254 18.6413 37.8867 18.2924 37.8867H9.73632C8.71901 37.8867 7.89432 37.0621 7.89432 36.045Z" fill="#D3BC8F"/>
<path d="M49.471 12.2341C49.471 11.2169 48.6463 10.3923 47.629 10.3923H3.42087C2.40356 10.3923 1.57886 11.2169 1.57886 12.2341V41.8022C1.57886 42.8193 2.40356 43.6439 3.42087 43.6439H13.9071C14.816 43.6439 15.6875 44.0057 16.3293 44.6493L25.525 53.8703L34.7206 44.6493C35.3624 44.0057 36.2339 43.6439 37.1429 43.6439H47.629C48.6464 43.6439 49.471 42.8193 49.471 41.8022V12.2341ZM51.0499 41.8022C51.0499 43.6912 49.5183 45.2225 47.629 45.2225H37.1429C36.6534 45.2226 36.184 45.4174 35.8384 45.7639L26.4568 55.1719C25.9426 55.6875 25.1073 55.6875 24.5932 55.1719L15.2115 45.7639C14.8659 45.4174 14.3965 45.2226 13.9071 45.2225H3.42087C1.53157 45.2225 0 43.6912 0 41.8022V12.2341C0 10.3451 1.53158 8.81371 3.42087 8.81371H47.629C49.5183 8.81371 51.0499 10.3451 51.0499 12.2341V41.8022Z" fill="#D3BC8F"/>
<path d="M19.6293 44.4585C19.7024 43.0607 20.8573 41.9648 22.2572 41.9648H28.2664C29.6664 41.9648 30.8212 43.0607 30.8943 44.4585L31.1694 49.7206C31.2481 51.2256 30.0488 52.489 28.5415 52.489H21.9821C20.4748 52.489 19.2756 51.2256 19.3542 49.7206L19.6293 44.4585Z" fill="#D3BC8F"/>
</svg>
